<svg width="1440" height="264" viewBox="0 0 1440 264" fill="none" xmlns="http://www.w3.org/2000/svg">
<path d="M1440 265.5L0 265.5V45.9824C3.8689 35.6892 85.3365 -29.3632 146.5 25.3184C288 151.823 353 38.0987 395.5 15.5805C438 -6.93768 488 -2.40167 526 36.3326C564 75.067 595.784 86.4665 622 84.7905C669.469 81.7559 690.5 70.1745 745 25.3184C792 -13.3648 857.272 9.55568 885 36.3326C990.5 138.215 1062.5 52.2107 1118 15.5805C1173.5 -21.0497 1235.38 31.169 1252.5 45.9824C1351.5 131.663 1440 45.9824 1440 45.9824V265.5Z" fill="#FEF8EC"/>
<path d="M1440 41.1998C1408.83 70.8665 1327.86 112.4 1253.42 41.1998C1178.98 -30.0002 1110 12.513 1080 41.1998" stroke="#464646" stroke-width="3"/>
<path d="M1080 41.1998C1048.83 70.8665 967.864 112.4 893.42 41.1998C818.977 -30.0002 746 16.013 720 41.1998" stroke="#464646" stroke-width="3"/>
<path d="M720 41.1998C688.825 70.8665 607.864 112.4 533.42 41.1998C458.977 -30.0002 388.5 14.013 360 41.1998" stroke="#464646" stroke-width="3"/>
<path d="M360 41.1998C328.825 70.8665 247.864 112.4 173.42 41.1998C98.9765 -30.0002 24.7885 11.8463 -2 41.513" stroke="#464646" stroke-width="3"/>
</svg>
