<svg width="5122" height="267" viewBox="0 0 5122 267" fill="none" xmlns="http://www.w3.org/2000/svg">
<path d="M5121 266.5L8.10091 266.5V46.9824C21.8381 36.6892 311.099 -28.3632 528.267 26.3184C1030.68 152.823 1261.47 39.0986 1412.37 16.5804C1563.27 -5.93774 1740.81 -1.40174 1875.73 37.3326C2010.65 76.0669 2123.51 87.4664 2216.59 85.7905C2385.13 82.7558 2459.81 71.1745 2653.32 26.3184C2820.2 -12.3649 3051.95 10.5556 3150.4 37.3326C3524.99 139.215 3780.64 53.2107 3977.7 16.5804C4174.76 -20.0498 4394.48 32.169 4455.26 46.9824C4806.77 132.663 5121 46.9824 5121 46.9824V266.5Z" fill="#FEF8EC"/>
<path d="M5121 42.1997C5010.31 71.8664 4722.85 113.4 4458.53 42.1997C4194.2 -29.0003 3949.29 13.5129 3842.78 42.1997" stroke="#464646" stroke-width="6"/>
<path d="M3842.78 42.1997C3732.08 71.8664 3444.62 113.4 3180.3 42.1997C2915.98 -29.0003 2656.87 17.0129 2564.55 42.1997" stroke="#464646" stroke-width="6"/>
<path d="M2564.55 42.1997C2453.86 71.8664 2166.4 113.4 1902.08 42.1997C1637.75 -29.0003 1387.52 15.0129 1286.33 42.1997" stroke="#464646" stroke-width="6"/>
<path d="M1286.33 42.1997C1175.64 71.8664 888.174 113.4 623.852 42.1997C359.53 -29.0003 96.1159 12.8463 0.999992 42.5129" stroke="#464646" stroke-width="6"/>
</svg>
