<svg width="5124" height="890" viewBox="0 0 5124 890" fill="none" xmlns="http://www.w3.org/2000/svg">
<path d="M2 0H5111.36V817.5C5097.63 827.711 4808.57 892.247 4591.55 838C4089.48 712.5 3858.85 825.321 3708.06 847.661C3557.26 870 3379.85 865.5 3245.02 827.073C3110.19 788.646 2997.42 777.337 2904.4 779C2735.97 782.011 2661.35 793.5 2467.97 838C2301.21 876.376 2069.61 853.638 1971.23 827.073C1596.9 726 1341.43 811.321 1144.51 847.661C947.586 884 728.012 832.196 667.281 817.5C316.012 732.5 2 817.5 2 817.5V0Z" fill="#FEF8EC"/>
<path d="M2 819.813C112.614 790.147 399.876 748.613 664.015 819.813C928.154 891.013 1172.89 848.5 1279.34 819.813" stroke="#464646" stroke-width="8"/>
<path d="M1279.34 819.813C1389.95 790.147 1677.21 748.613 1941.35 819.813C2205.49 891.013 2464.43 845 2556.68 819.813" stroke="#464646" stroke-width="8"/>
<path d="M2556.68 819.813C2667.29 790.147 2954.55 748.613 3218.69 819.813C3482.83 891.013 3732.89 847 3834.02 819.813" stroke="#464646" stroke-width="8"/>
<path d="M3834.02 819.813C3944.63 790.147 4231.89 748.613 4496.03 819.813C4760.17 891.013 5023.4 849.167 5118.45 819.5" stroke="#464646" stroke-width="8"/>
<path d="M5.54822 845.813C116.162 816.147 403.424 774.613 667.563 845.813C931.702 917.013 1176.44 874.5 1282.89 845.813" stroke="#464646" stroke-width="8"/>
<path d="M1282.89 845.813C1393.5 816.147 1680.76 774.613 1944.9 845.813C2209.04 917.013 2467.97 871 2560.23 845.813" stroke="#464646" stroke-width="8"/>
<path d="M2560.23 845.813C2670.84 816.147 2958.1 774.613 3222.24 845.813C3486.38 917.013 3736.44 873 3837.56 845.813" stroke="#464646" stroke-width="8"/>
<path d="M3837.56 845.813C3948.18 816.147 4235.44 774.613 4499.58 845.813C4763.72 917.013 5026.95 875.167 5122 845.5" stroke="#464646" stroke-width="8"/>
</svg>
