<svg width="1440" height="102" viewBox="0 0 1440 102" fill="none" xmlns="http://www.w3.org/2000/svg">
<path d="M0 -1H1440V90.3997C1436.13 93.1145 1354.66 110.272 1293.5 95.8498C1152 62.4844 1087 92.479 1044.5 98.4182C1002 104.357 952 103.161 914 92.9448C876 82.7287 844.216 79.7221 818 80.1641C770.531 80.9645 749.5 84.0191 695 95.8498C648 106.052 582.728 100.007 555 92.9448C449.5 66.0735 377.5 88.757 322 98.4182C266.5 108.079 204.616 94.3067 187.5 90.3997C88.5 67.8016 0 90.3997 0 90.3997V-1Z" fill="#FEF8EC"/>
</svg>
