<svg width="5120" height="103" viewBox="0 0 5120 103" fill="none" xmlns="http://www.w3.org/2000/svg">
<path d="M0 0H5120V91.3997C5106.24 94.1145 4816.58 111.272 4599.11 96.8498C4096 63.4844 3864.89 93.479 3713.78 99.4182C3562.67 105.357 3384.89 104.161 3249.78 93.9448C3114.67 83.7287 3001.66 80.7221 2908.44 81.1641C2739.67 81.9645 2664.89 85.0191 2471.11 96.8498C2304 107.052 2071.92 101.007 1973.33 93.9448C1598.22 67.0735 1342.22 89.757 1144.89 99.4182C947.556 109.079 727.525 95.3067 666.667 91.3997C314.667 68.8016 0 91.3997 0 91.3997V0Z" fill="#FEF8EC"/>
</svg>
