<svg width="1440" height="888" viewBox="0 0 1440 888" fill="none" xmlns="http://www.w3.org/2000/svg">
<path d="M0 0.5H1440V818C1436.13 828.211 1354.66 892.747 1293.5 838.5C1152 713 1087 825.821 1044.5 848.161C1002 870.5 952 866 914 827.573C876 789.146 844.216 777.837 818 779.5C770.531 782.511 749.5 794 695 838.5C648 876.876 582.728 854.138 555 827.573C449.5 726.5 377.5 811.821 322 848.161C266.5 884.5 204.616 832.696 187.5 818C88.5 733 0 818 0 818V0.5Z" fill="#FEF8EC"/>
<path d="M0 820.313C31.1749 790.647 112.136 749.113 186.58 820.313C261.023 891.513 330 849 360 820.313" stroke="#464646" stroke-width="3"/>
<path d="M360 820.313C391.175 790.647 472.136 749.113 546.58 820.313C621.023 891.513 694 845.5 720 820.313" stroke="#464646" stroke-width="3"/>
<path d="M720 820.313C751.175 790.647 832.136 749.113 906.58 820.313C981.023 891.513 1051.5 847.5 1080 820.313" stroke="#464646" stroke-width="3"/>
<path d="M1080 820.313C1111.17 790.647 1192.14 749.113 1266.58 820.313C1341.02 891.513 1415.21 849.667 1442 820" stroke="#464646" stroke-width="3"/>
<path d="M1 846.313C32.1749 816.647 113.136 775.113 187.58 846.313C262.023 917.513 331 875 361 846.313" stroke="#464646" stroke-width="3"/>
<path d="M361 846.313C392.175 816.647 473.136 775.113 547.58 846.313C622.023 917.513 695 871.5 721 846.313" stroke="#464646" stroke-width="3"/>
<path d="M721 846.313C752.175 816.647 833.136 775.113 907.58 846.313C982.023 917.513 1052.5 873.5 1081 846.313" stroke="#464646" stroke-width="3"/>
<path d="M1081 846.313C1112.17 816.647 1193.14 775.113 1267.58 846.313C1342.02 917.513 1416.21 875.667 1443 846" stroke="#464646" stroke-width="3"/>
</svg>
