<svg width="5122" height="889" viewBox="0 0 5122 889" fill="none" xmlns="http://www.w3.org/2000/svg">
<path d="M1 0H5110.36V817.5C5096.63 827.711 4807.57 892.247 4590.55 838C4088.48 712.5 3857.85 825.321 3707.06 847.661C3556.26 870 3378.85 865.5 3244.02 827.073C3109.19 788.646 2996.42 777.337 2903.4 779C2734.97 782.011 2660.35 793.5 2466.97 838C2300.21 876.376 2068.61 853.638 1970.23 827.073C1595.9 726 1340.43 811.321 1143.51 847.661C946.586 884 727.012 832.196 666.281 817.5C315.012 732.5 1 817.5 1 817.5V0Z" fill="#FEF8EC"/>
<path d="M1 819.813C111.614 790.147 398.876 748.613 663.015 819.813C927.154 891.013 1171.89 848.5 1278.34 819.813" stroke="#464646" stroke-width="6"/>
<path d="M1278.34 819.813C1388.95 790.147 1676.21 748.613 1940.35 819.813C2204.49 891.013 2463.43 845 2555.68 819.813" stroke="#464646" stroke-width="6"/>
<path d="M2555.68 819.813C2666.29 790.147 2953.55 748.613 3217.69 819.813C3481.83 891.013 3731.89 847 3833.02 819.813" stroke="#464646" stroke-width="6"/>
<path d="M3833.02 819.813C3943.63 790.147 4230.89 748.613 4495.03 819.813C4759.17 891.013 5022.4 849.167 5117.45 819.5" stroke="#464646" stroke-width="6"/>
<path d="M4.54822 845.813C115.162 816.147 402.424 774.613 666.563 845.813C930.702 917.013 1175.44 874.5 1281.89 845.813" stroke="#464646" stroke-width="6"/>
<path d="M1281.89 845.813C1392.5 816.147 1679.76 774.613 1943.9 845.813C2208.04 917.013 2466.97 871 2559.23 845.813" stroke="#464646" stroke-width="6"/>
<path d="M2559.23 845.813C2669.84 816.147 2957.1 774.613 3221.24 845.813C3485.38 917.013 3735.44 873 3836.56 845.813" stroke="#464646" stroke-width="6"/>
<path d="M3836.56 845.813C3947.18 816.147 4234.44 774.613 4498.58 845.813C4762.72 917.013 5025.95 875.167 5121 845.5" stroke="#464646" stroke-width="6"/>
</svg>
